<svg xmlns="http://www.w3.org/2000/svg" width="1200" height="760" viewBox="0 0 1200 760">
  <defs>
    <marker id="arrow" markerWidth="10" markerHeight="10" refX="8" refY="3" orient="auto" markerUnits="strokeWidth">
      <path d="M0,0 L0,6 L9,3 z" fill="#333" />
    </marker>
    <style>
      .title { font-family: Arial, sans-serif; font-size: 26px; font-weight: 700; fill: #222; }
      .box { fill: #eef4ff; stroke: #2f5597; stroke-width: 2; rx: 10; }
      .db { fill: #e2f0d9; stroke: #548235; stroke-width: 2; rx: 10; }
      .calc { fill: #fff3cd; stroke: #9a6b00; stroke-width: 2; rx: 10; }
      .text { font-family: Arial, sans-serif; font-size: 16px; fill: #222; }
      .small { font-family: Arial, sans-serif; font-size: 14px; fill: #222; }
      .line { stroke: #333; stroke-width: 2; fill: none; marker-end: url(#arrow); }
      .plainLine { stroke: #333; stroke-width: 2; fill: none; }
    </style>
  </defs>
  <text x="40" y="42" class="title">Figure 3. Application Architecture Model</text>

  <rect x="70" y="80" width="220" height="58" class="box"/>
  <text x="180" y="105" class="text" text-anchor="middle">Command-Line</text>
  <text x="180" y="125" class="text" text-anchor="middle">User Interface</text>

  <rect x="390" y="80" width="220" height="58" class="calc"/>
  <text x="500" y="105" class="text" text-anchor="middle">Input Mode</text>
  <text x="500" y="125" class="small" text-anchor="middle">Manual or Note ID</text>

  <rect x="180" y="210" width="230" height="58" class="box"/>
  <text x="295" y="235" class="text" text-anchor="middle">Manual Lifestyle</text>
  <text x="295" y="255" class="text" text-anchor="middle">Questions</text>

  <rect x="590" y="210" width="230" height="58" class="box"/>
  <text x="705" y="235" class="text" text-anchor="middle">Unstructured</text>
  <text x="705" y="255" class="text" text-anchor="middle">Note ID</text>

  <rect x="590" y="330" width="230" height="58" class="box"/>
  <text x="705" y="355" class="text" text-anchor="middle">Text Feature</text>
  <text x="705" y="375" class="text" text-anchor="middle">Parser</text>

  <rect x="360" y="440" width="260" height="58" class="box"/>
  <text x="490" y="465" class="text" text-anchor="middle">Customer Feature</text>
  <text x="490" y="485" class="text" text-anchor="middle">Frame</text>

  <rect x="130" y="550" width="230" height="58" class="box"/>
  <text x="245" y="575" class="text" text-anchor="middle">Decision Tree</text>
  <text x="245" y="595" class="text" text-anchor="middle">Model File</text>

  <rect x="430" y="550" width="200" height="58" class="calc"/>
  <text x="530" y="575" class="text" text-anchor="middle">Risk Tier</text>
  <text x="530" y="595" class="text" text-anchor="middle">Prediction</text>

  <rect x="700" y="550" width="220" height="58" class="box"/>
  <text x="810" y="575" class="text" text-anchor="middle">Base Rate</text>
  <text x="810" y="595" class="text" text-anchor="middle">Benchmark Lookup</text>

  <rect x="500" y="660" width="230" height="58" class="calc"/>
  <text x="615" y="685" class="text" text-anchor="middle">Rate Recommendation</text>
  <text x="615" y="705" class="text" text-anchor="middle">Calculation</text>

  <rect x="910" y="660" width="220" height="58" class="box"/>
  <text x="1020" y="685" class="text" text-anchor="middle">Database</text>
  <text x="1020" y="705" class="text" text-anchor="middle">Save</text>

  <rect x="930" y="80" width="190" height="50" class="db"/>
  <text x="1025" y="111" class="text" text-anchor="middle">Customer</text>
  <rect x="930" y="142" width="190" height="50" class="db"/>
  <text x="1025" y="173" class="text" text-anchor="middle">Health Profile</text>
  <rect x="930" y="204" width="190" height="50" class="db"/>
  <text x="1025" y="235" class="text" text-anchor="middle">Data Lake Ref</text>
  <rect x="930" y="266" width="190" height="50" class="db"/>
  <text x="1025" y="288" class="small" text-anchor="middle">Quote</text>
  <text x="1025" y="306" class="small" text-anchor="middle">Recommendation</text>

  <path d="M290,109 L390,109" class="line"/>
  <path d="M500,138 L500,180 L295,180 L295,210" class="line"/>
  <path d="M500,138 L500,180 L705,180 L705,210" class="line"/>
  <path d="M705,268 L705,330" class="line"/>
  <path d="M295,268 L295,390 L430,390 L430,440" class="line"/>
  <path d="M705,388 L705,420 L490,420 L490,440" class="line"/>
  <path d="M430,498 L430,530 L245,530 L245,550" class="line"/>
  <path d="M360,579 L430,579" class="line"/>
  <path d="M620,469 L810,469 L810,550" class="line"/>
  <path d="M530,608 L530,635 L580,635 L580,660" class="line"/>
  <path d="M810,608 L810,635 L680,635 L680,660" class="line"/>
  <path d="M730,689 L910,689" class="line"/>
  <path d="M1020,660 L1020,316" class="line"/>
  <path d="M1025,130 L1025,142" class="plainLine"/>
  <path d="M1025,192 L1025,204" class="plainLine"/>
  <path d="M1025,254 L1025,266" class="plainLine"/>
</svg>

